<?xml version="1.0" encoding="UTF-8" standalone="no"?>
<svg
    xmlns="http://www.w3.org/2000/svg"
    version="1.1"
    width="16"
    height="16"
    viewBox="0 0 16 16"
    style="overflow:visible">
  <g
      id="network"
      mask="url(#network_1_)"
      transform="matrix(0.12303929,0,0,0.12303929,0.18946401,-0.27102321)">
    <linearGradient
        id="XMLID_2_"
        gradientUnits="userSpaceOnUse"
        x1="43.9995"
        y1="111.333"
        x2="43.9995"
        y2="124.166">
      <stop
          offset="0"
          style="stop-color:#999999"
          id="stop853"/>
      <stop
          offset="1"
          style="stop-color:#4D4D4D"
          id="stop855"/>
    </linearGradient>
    <path
        style="opacity:0.25;fill:url(#XMLID_2_)"
        d="M 84,114 H 43 v -1 c 0,-1.103 -0.897,-2 -2,-2 H 22 c -1.103,0 -2,0.897 -2,2 v 1 H 4 v 7 h 16 v 1 c 0,1.103 0.897,2 2,2 h 19 c 1.103,0 2,-0.897 2,-2 v -1 h 41 z"
        id="path858"/>
    <linearGradient
        id="XMLID_3_"
        gradientUnits="userSpaceOnUse"
        x1="43.9995"
        y1="112.333"
        x2="43.9995"
        y2="125.166">
      <stop
          offset="0"
          style="stop-color:#999999"
          id="stop860"/>
      <stop
          offset="1"
          style="stop-color:#4D4D4D"
          id="stop862"/>
    </linearGradient>
    <path
        style="opacity:0.25;fill:url(#XMLID_3_)"
        d="M 84,115 H 43 v -1 c 0,-1.103 -0.897,-2 -2,-2 H 22 c -1.103,0 -2,0.897 -2,2 v 1 H 4 v 7 h 16 v 1 c 0,1.103 0.897,2 2,2 h 19 c 1.103,0 2,-0.897 2,-2 v -1 h 41 z"
        id="path865"/>
    <linearGradient
        id="XMLID_4_"
        gradientUnits="userSpaceOnUse"
        x1="43.9995"
        y1="113.875"
        x2="43.9995"
        y2="119.25">
      <stop
          offset="0.0112"
          style="stop-color:#737373"
          id="stop867"/>
      <stop
          offset="1"
          style="stop-color:#1A1A1A"
          id="stop869"/>
    </linearGradient>
    <rect
        x="4"
        y="113"
        style="opacity:0.8;fill:url(#XMLID_4_)"
        width="80"
        height="7"
        id="rect872"/>
    <linearGradient
        id="XMLID_5_"
        gradientUnits="userSpaceOnUse"
        x1="43.9995"
        y1="113.875"
        x2="43.9995"
        y2="119.25">
      <stop
          offset="0.0056"
          style="stop-color:#B2B4B7"
          id="stop874"/>
      <stop
          offset="0.1742"
          style="stop-color:#FFFFFF"
          id="stop876"/>
      <stop
          offset="0.2415"
          style="stop-color:#F4F4F4"
          id="stop878"/>
      <stop
          offset="0.3591"
          style="stop-color:#D7D7D7"
          id="stop880"/>
      <stop
          offset="0.5128"
          style="stop-color:#A9A9A9"
          id="stop882"/>
      <stop
          offset="0.695"
          style="stop-color:#696969"
          id="stop884"/>
      <stop
          offset="0.736"
          style="stop-color:#595959"
          id="stop886"/>
      <stop
          offset="1"
          style="stop-color:#878787"
          id="stop888"/>
    </linearGradient>
    <rect
        x="4"
        y="114"
        style="fill:url(#XMLID_5_)"
        width="80"
        height="5"
        id="rect891"/>
    <linearGradient
        id="XMLID_6_"
        gradientUnits="userSpaceOnUse"
        x1="31.5"
        y1="110.333"
        x2="31.5"
        y2="123.166">
      <stop
          offset="0.0112"
          style="stop-color:#737373"
          id="stop893"/>
      <stop
          offset="1"
          style="stop-color:#1A1A1A"
          id="stop895"/>
    </linearGradient>
    <path
        style="opacity:0.75;fill:url(#XMLID_6_)"
        d="m 22,110 c -1.103,0 -2,0.897 -2,2 v 9 c 0,1.103 0.897,2 2,2 h 19 c 1.103,0 2,-0.897 2,-2 v -9 c 0,-1.103 -0.897,-2 -2,-2 z"
        id="path898"/>
    <linearGradient
        id="XMLID_7_"
        gradientUnits="userSpaceOnUse"
        x1="31.5"
        y1="111"
        x2="31.5"
        y2="122.1058">
      <stop
          offset="0.0056"
          style="stop-color:#B2B4B7"
          id="stop900"/>
      <stop
          offset="0.2584"
          style="stop-color:#FFFFFF"
          id="stop902"/>
      <stop
          offset="0.313"
          style="stop-color:#F4F4F4"
          id="stop904"/>
      <stop
          offset="0.4082"
          style="stop-color:#D7D7D7"
          id="stop906"/>
      <stop
          offset="0.5328"
          style="stop-color:#A9A9A9"
          id="stop908"/>
      <stop
          offset="0.6803"
          style="stop-color:#696969"
          id="stop910"/>
      <stop
          offset="0.7135"
          style="stop-color:#595959"
          id="stop912"/>
      <stop
          offset="1"
          style="stop-color:#878787"
          id="stop914"/>
    </linearGradient>
    <path
        style="fill:url(#XMLID_7_)"
        d="m 42,121 c 0,0.55 -0.45,1 -1,1 H 22 c -0.55,0 -1,-0.45 -1,-1 v -9 c 0,-0.55 0.45,-1 1,-1 h 19 c 0.55,0 1,0.45 1,1 z"
        id="path917"/>
    <linearGradient
        id="XMLID_8_"
        gradientUnits="userSpaceOnUse"
        x1="28.7778"
        y1="102.9502"
        x2="34.222301"
        y2="102.9502">
      <stop
          offset="0.0112"
          style="stop-color:#737373"
          id="stop919"/>
      <stop
          offset="1"
          style="stop-color:#1A1A1A"
          id="stop921"/>
    </linearGradient>
    <path
        style="opacity:0.75;fill:url(#XMLID_8_)"
        d="m 29,93 c -0.552,0 -1,0.447 -1,1 v 16.199 c 0,0.142 0.03,0.282 0.088,0.411 0.042,0.094 0.07,2.29 3.378,2.29 3.286,0 3.387,-2.169 3.432,-2.262 C 34.965,110.501 35,110.351 35,110.199 V 94 c 0,-0.553 -0.448,-1 -1,-1 z"
        id="path924"/>
    <linearGradient
        id="XMLID_9_"
        gradientUnits="userSpaceOnUse"
        x1="28.9951"
        y1="102.9502"
        x2="34.001999"
        y2="102.9502">
      <stop
          offset="0.0056"
          style="stop-color:#B2B4B7"
          id="stop926"/>
      <stop
          offset="0.1742"
          style="stop-color:#FFFFFF"
          id="stop928"/>
      <stop
          offset="0.2503"
          style="stop-color:#F4F4F4"
          id="stop930"/>
      <stop
          offset="0.3831"
          style="stop-color:#D7D7D7"
          id="stop932"/>
      <stop
          offset="0.5569"
          style="stop-color:#A9A9A9"
          id="stop934"/>
      <stop
          offset="0.7627"
          style="stop-color:#696969"
          id="stop936"/>
      <stop
          offset="0.809"
          style="stop-color:#595959"
          id="stop938"/>
      <stop
          offset="1"
          style="stop-color:#878787"
          id="stop940"/>
    </linearGradient>
    <path
        style="fill:url(#XMLID_9_)"
        d="m 34,110.199 c 0,0 0.167,1.701 -2.534,1.701 C 28.765,111.9 29,110.199 29,110.199 V 94 h 5 z"
        id="path943"/>
    <linearGradient
        id="XMLID_10_"
        gradientUnits="userSpaceOnUse"
        x1="28.7778"
        y1="103.5"
        x2="34.222301"
        y2="103.5">
      <stop
          offset="0.0112"
          style="stop-color:#4D4D4D"
          id="stop945"/>
      <stop
          offset="1"
          style="stop-color:#000000"
          id="stop947"/>
    </linearGradient>
    <rect
        x="28"
        y="103"
        style="fill:url(#XMLID_10_)"
        width="7"
        height="1"
        id="rect950"/>
    <linearGradient
        id="XMLID_11_"
        gradientUnits="userSpaceOnUse"
        x1="28.7778"
        y1="104.5"
        x2="34.222301"
        y2="104.5">
      <stop
          offset="0.0112"
          style="stop-color:#737373"
          id="stop952"/>
      <stop
          offset="1"
          style="stop-color:#1A1A1A"
          id="stop954"/>
    </linearGradient>
    <rect
        x="28"
        y="104"
        style="opacity:0.5;fill:url(#XMLID_11_)"
        width="7"
        height="1"
        id="rect957"/>
    <linearGradient
        id="XMLID_12_"
        gradientUnits="userSpaceOnUse"
        x1="19.4272"
        y1="112.4941"
        x2="19.6182"
        y2="122.9301">
      <stop
          offset="0"
          style="stop-color:#737373"
          id="stop959"/>
      <stop
          offset="0.4326"
          style="stop-color:#1A1A1A"
          id="stop961"/>
      <stop
          offset="1"
          style="stop-color:#676767"
          id="stop963"/>
    </linearGradient>
    <rect
        x="19"
        y="113"
        style="opacity:0.3;fill:url(#XMLID_12_)"
        width="1"
        height="7"
        id="rect966"/>
    <linearGradient
        id="XMLID_13_"
        gradientUnits="userSpaceOnUse"
        x1="43.4268"
        y1="112.4932"
        x2="43.617699"
        y2="122.9306">
      <stop
          offset="0"
          style="stop-color:#737373"
          id="stop968"/>
      <stop
          offset="0.4326"
          style="stop-color:#1A1A1A"
          id="stop970"/>
      <stop
          offset="1"
          style="stop-color:#676767"
          id="stop972"/>
    </linearGradient>
    <rect
        x="43"
        y="113"
        style="opacity:0.3;fill:url(#XMLID_13_)"
        width="1"
        height="7"
        id="rect975"/>
  </g>
  <linearGradient
      id="XMLID_14_"
      gradientUnits="userSpaceOnUse"
      x1="53.915501"
      y1="91.115196"
      x2="55.820202"
      y2="110.6698"
      gradientTransform="matrix(0.12303928,0,0,0.12303928,0.18946401,-0.27102461)">
    <stop
        offset="0"
        style="stop-color:#999999"
        id="stop978"/>
    <stop
        offset="1"
        style="stop-color:#4D4D4D"
        id="stop980"/>
  </linearGradient>
  <path
      style="opacity:0.2;fill:url(#XMLID_14_);stroke-width:0.12303928"
      d="m 0.18946401,11.659972 c 0,0.590221 0.5561376,0.865089 0.7997553,0.865089 H 13.089148 c 0.48256,-0.02928 0.511597,-0.413042 0.511597,-0.87407 v 0.01341 c 0,-0.468534 -13.41128099,-0.0044 -13.41128099,-0.0044 z"
      id="path983"
  />
  <linearGradient
      id="XMLID_15_"
      gradientUnits="userSpaceOnUse"
      x1="56.851101"
      y1="91.507797"
      x2="58.826099"
      y2="111.7843"
      gradientTransform="matrix(0.12303928,0,0,0.12303928,0.18946401,-0.27102461)">
    <stop
        offset="0"
        style="stop-color:#999999"
        id="stop985"/>
    <stop
        offset="1"
        style="stop-color:#4D4D4D"
        id="stop987"/>
  </linearGradient>
  <path
      style="opacity:0.2;fill:url(#XMLID_15_);stroke-width:0.12303928"
      d="m 0.18946401,11.783012 c 0,0.505569 0.4018463,0.865089 0.7997553,0.865089 H 13.484227 c 0.482561,-0.02928 0.875302,-0.09276 0.875302,-0.553676 l -0.02055,-0.306983 c -2e-6,-0.456353 -14.14951899,-0.263797 -14.14951899,-0.0044 z"
      id="path990"
  />
  <linearGradient
      id="XMLID_16_"
      gradientUnits="userSpaceOnUse"
      x1="57.940899"
      y1="89.600601"
      x2="60.232399"
      y2="113.1264"
      gradientTransform="matrix(0.12303928,0,0,0.12303928,0.18946401,-0.27102461)">
    <stop
        offset="0"
        style="stop-color:#999999"
        id="stop992"/>
    <stop
        offset="1"
        style="stop-color:#4D4D4D"
        id="stop994"/>
  </linearGradient>
  <path
      style="opacity:0.2;fill:url(#XMLID_16_);stroke-width:0.12303928"
      d="M 13.730306,11.765171 0.18946401,11.536933 v 0.369118 c 0,0.693941 0.5561376,0.865089 0.7997553,0.865089 H 13.682813 c 0.212735,-0.01274 0.436912,-0.03248 0.621348,-0.08969 0.234144,-0.07272 0.403937,-0.206091 0.403937,-0.463981 0,0 -0.220731,-0.452293 -0.977792,-0.452294 z"
      id="path997"
  />
  <linearGradient
      id="XMLID_17_"
      gradientUnits="userSpaceOnUse"
      x1="47.311501"
      y1="10.7583"
      x2="58.862999"
      y2="110.2979"
      gradientTransform="matrix(0.12303928,0,0,0.12303928,0.18946401,-0.27102461)">
    <stop
        offset="0"
        style="stop-color:#999999"
        id="stop999"/>
    <stop
        offset="1"
        style="stop-color:#4D4D4D"
        id="stop1001"/>
  </linearGradient>
  <path
      style="opacity:0.75;fill:url(#XMLID_17_);stroke-width:0.12303928"
      d="m 1.0440949,1.7099091 c -0.47124049,0 -0.85463089,0.382529 -0.85463089,0.8527853 v 8.9865436 c 0,0.470256 0.3833904,0.852785 0.85463089,0.852785 H 12.500036 c 0.471241,0 0.854508,-0.382529 0.854508,-0.852785 V 3.6781684 c 0,-0.4702561 -0.383267,-0.8527851 -0.854508,-0.8527851 H 7.907595 c -0.3436488,0 -0.7788387,-0.1835747 -1.0828688,-0.456845 0,0 -0.1273458,-0.11418 -0.1273458,-0.11418 C 6.4372755,2.0207063 6.0364136,1.7099091 5.5597595,1.7099091 Z"
      id="path1004"
  />
  <linearGradient
      id="XMLID_18_"
      gradientUnits="userSpaceOnUse"
      x1="35.979"
      y1="15.0229"
      x2="68.9291"
      y2="107.2834"
      gradientTransform="matrix(0.12303928,0,0,0.12303928,0.18946401,-0.27102461)">
    <stop
        offset="0"
        style="stop-color:#FFFFFF"
        id="stop1006"/>
    <stop
        offset="0.2191"
        style="stop-color:#F4F4F4"
        id="stop1008"/>
    <stop
        offset="0.6013"
        style="stop-color:#D8D8D8"
        id="stop1010"/>
    <stop
        offset="1"
        style="stop-color:#B3B3B3"
        id="stop1012"/>
  </linearGradient>
  <path
      style="fill:url(#XMLID_18_);stroke-width:0.12303928"
      d="m 13.231628,11.549238 c 0,0.401476 -0.329253,0.729746 -0.731469,0.729746 H 1.0440949 c -0.40233849,0 -0.73159159,-0.32827 -0.73159159,-0.729746 V 2.5626944 c 0,-0.4013542 0.3292531,-0.729746 0.73159159,-0.729746 h 4.5156646 c 0.4024614,0 0.7565684,0.244479 1.0554309,0.5129508 l 0.1272223,0.11418 c 0.2988624,0.2684717 0.7628436,0.488343 1.165182,0.488343 h 4.5925643 c 0.402338,0 0.731468,0.3282686 0.731468,0.7297458 z"
      id="path1015"
  />
  <path
      style="fill:#ffffff;stroke-width:0.12303928"
      d="M 12.500159,2.9485455 H 7.907595 c -0.4023385,0 -0.8663196,-0.2198711 -1.165182,-0.4883429 L 6.6151904,2.3460222 C 6.3164509,2.0775504 5.9622209,1.8330713 5.5597595,1.8330713 H 1.0440949 C 0.64175641,1.8329484 0.31250331,2.1613402 0.31250331,2.5626944 v 0.1230394 c 0,-0.4013542 0.3292531,-0.729746 0.73159159,-0.729746 h 4.5156646 c 0.4024614,0 0.7565684,0.244479 1.0554309,0.5129506 l 0.1272223,0.1141801 c 0.2988624,0.2684717 0.7628436,0.4883428 1.165182,0.4883428 h 4.5925643 c 0.402338,0 0.731468,0.3282688 0.731468,0.729746 V 3.6781679 c 0,-0.4013541 -0.329253,-0.7296229 -0.731468,-0.7296224 z"
      id="path1017"
  />
  <linearGradient
      id="XMLID_19_"
      gradientUnits="userSpaceOnUse"
      x1="49.921902"
      y1="23.2446"
      x2="58.3703"
      y2="104.0195"
      gradientTransform="matrix(0.12303928,0,0,0.12303928,0.18946401,-0.27102461)">
    <stop
        offset="0"
        style="stop-color:#D9D9D9"
        id="stop1019"/>
    <stop
        offset="0.3749"
        style="stop-color:#CECECE"
        id="stop1021"/>
    <stop
        offset="1"
        style="stop-color:#B3B3B3"
        id="stop1023"/>
  </linearGradient>
  <path
      style="fill:url(#XMLID_19_);stroke-width:0.12303928"
      d="m 0.60090741,12.010265 c 0,0 0.1210706,0.02067 0.1987084,-0.03494 0.081944,-0.05881 0.1280839,-0.226023 0.1280839,-0.447371 V 6.3893389 c 0,-0.4685335 0.38351339,-0.8495862 0.85475389,-0.8495862 h 4.5903493 c 0.3686257,0 0.8098446,-0.2469398 1.083607,-0.4917879 L 7.5835102,4.9342769 C 7.9728057,4.5859522 8.3448765,4.4166502 8.7212537,4.4166502 H 13.231628 V 4.3428267 H 8.5982144 c -0.3763771,0 -0.748448,0.169302 -1.1377442,0.5176262 L 7.3333712,4.9741407 C 7.0596082,5.2188664 6.6183893,5.4659292 6.2497637,5.4659292 H 1.6594143 c -0.4712404,0 -0.85475389,0.3811756 -0.85475389,0.8497093 v 5.1384895 c 0.00763,0.24817 -0.060904,0.477146 -0.1435868,0.535343 -0.016241,0.01127 -0.060166,0.0208 -0.060166,0.0208 z"
      id="path1026"
  />
  <linearGradient
      id="XMLID_20_"
      gradientUnits="userSpaceOnUse"
      x1="54.9907"
      y1="39.262199"
      x2="63.210098"
      y2="110.0893"
      gradientTransform="matrix(0.12303928,0,0,0.12303928,0.18946401,-0.27102461)">
    <stop
        offset="0"
        style="stop-color:#999999"
        id="stop1028"/>
    <stop
        offset="1"
        style="stop-color:#4D4D4D"
        id="stop1030"/>
  </linearGradient>
  <path
      style="opacity:0.75;fill:url(#XMLID_20_);stroke-width:0.12303928"
      d="m 8.7212537,4.4167733 c -0.3763772,0 -0.748448,0.1693021 -1.1377442,0.5176262 L 7.4564092,5.0480873 C 7.1826475,5.2928129 6.7414286,5.5397527 6.3728029,5.5397527 H 1.7824536 c -0.4712405,0 -0.85475389,0.3811758 -0.85475389,0.8495862 v 5.1384891 c 0,0.227254 -0.045524,0.38942 -0.1248848,0.445279 -0.046509,0.03272 -0.1285761,0.05611 -0.2231933,0.03272 -0.093756,-0.02313 -0.1312829,-0.06915 -0.1923104,-0.125743 -0.029653,0.05179 0.040849,0.258875 0.086743,0.297017 0.026946,0.02252 0.253707,0.211504 0.53448269,0.211504 l 12.5987301,0.01341 c 0.482682,-0.02929 0.854754,-0.413166 0.854754,-0.874072 V 5.2663595 c 0,-0.4684106 -0.383391,-0.8495862 -0.854754,-0.8495862 z"
      id="path1033"
  />
  <radialGradient
      id="XMLID_21_"
      cx="79.615196"
      cy="116.7344"
      r="88.041702"
      gradientUnits="userSpaceOnUse"
      gradientTransform="matrix(0.12303928,0,0,0.12303928,0.18946401,-0.27102461)">
    <stop
        offset="0"
        style="stop-color:#FFDD70"
        id="stop1035"/>
    <stop
        offset="0.4225"
        style="stop-color:#FFAB43"
        id="stop1037"/>
    <stop
        offset="0.8022"
        style="stop-color:#FF841F"
        id="stop1039"/>
    <stop
        offset="1"
        style="stop-color:#FF7512"
        id="stop1041"/>
  </radialGradient>
  <path
      style="fill:url(#XMLID_21_);stroke-width:0.12303928"
      d="m 1.050739,11.527952 c 0,0.420425 -0.18652759,0.718426 -0.49793999,0.560813 0,0 0.22873,0.190341 0.4364203,0.190341 0.20769029,0 12.61804769,0 12.61804769,0 0.402461,-0.02461 0.731714,-0.351523 0.731714,-0.751031 V 5.2663595 c 0,-0.3996315 -0.329253,-0.7265469 -0.731714,-0.7265469 H 8.7212537 c -0.4024615,0 -0.7568147,0.2188868 -1.0556771,0.4862512 L 7.5384776,5.1397516 C 7.2394917,5.4069934 6.7753874,5.662792 6.3728029,5.662792 H 1.7824536 c -0.4024616,0 -0.7317146,0.3269154 -0.7317146,0.7265469 z"
      id="path1044"
  />
  <radialGradient
      id="XMLID_22_"
      cx="126.5"
      cy="130.1982"
      r="82.374199"
      gradientUnits="userSpaceOnUse"
      gradientTransform="matrix(0.12303928,0,0,0.12303928,0.18946401,-0.27102461)">
    <stop
        offset="0"
        style="stop-color:#F2D26A"
        id="stop1046"/>
    <stop
        offset="0.2621"
        style="stop-color:#F6B650"
        id="stop1048"/>
    <stop
        offset="0.7541"
        style="stop-color:#FC8723"
        id="stop1050"/>
    <stop
        offset="1"
        style="stop-color:#FF7512"
        id="stop1052"/>
  </radialGradient>
  <path
      style="fill:url(#XMLID_22_);stroke-width:0.12303928"
      d="m 13.607267,4.5398126 h -0.375639 v 7.7391714 c 0.317195,0 0.375639,0 0.375639,0 0.402461,-0.02461 0.731714,-0.351524 0.731714,-0.751032 V 5.2663595 c 0,-0.3996315 -0.329253,-0.7265469 -0.731714,-0.7265469 z"
      id="path1055"
  />
  <linearGradient
      id="XMLID_23_"
      gradientUnits="userSpaceOnUse"
      x1="132.50591"
      y1="35.3008"
      x2="40.759701"
      y2="115.4526"
      gradientTransform="matrix(0.12303928,0,0,0.12303928,0.18946401,-0.27102461)">
    <stop
        offset="0"
        style="stop-color:#FFDD70"
        id="stop1057"/>
    <stop
        offset="0.3826"
        style="stop-color:#FFB047"
        id="stop1059"/>
    <stop
        offset="0.791"
        style="stop-color:#FF8521"
        id="stop1061"/>
    <stop
        offset="1"
        style="stop-color:#FF7512"
        id="stop1063"/>
  </linearGradient>
  <path
      style="fill:url(#XMLID_23_);stroke-width:0.12303928"
      d="m 13.607267,12.032905 c 0,0 -12.4204466,-0.06399 -12.61804769,0 -0.0398647,0.01274 -0.0748079,0.02326 -0.106552,0.03199 -0.076653,0.05894 -0.2139653,0.104581 -0.3245776,0.02338 0.059428,0.04675 0.256783,0.190711 0.4311296,0.190711 0.20769029,0 12.61804769,0 12.61804769,0 0.402461,-0.02461 0.731714,-0.351524 0.731714,-0.751032 v -0.123043 c 0,0.399508 -0.329253,0.603384 -0.731714,0.627992 z"
      id="path1066"
  />
  <radialGradient
      id="XMLID_24_"
      cx="87.546898"
      cy="108.1338"
      r="112.4545"
      gradientUnits="userSpaceOnUse"
      gradientTransform="matrix(0.12303928,0,0,0.12303928,0.18946401,-0.27102461)">
    <stop
        offset="0"
        style="stop-color:#FFF3CC"
        id="stop1068"/>
    <stop
        offset="0.1912"
        style="stop-color:#FFDBAA"
        id="stop1070"/>
    <stop
        offset="0.5738"
        style="stop-color:#FFB06C"
        id="stop1072"/>
    <stop
        offset="0.854"
        style="stop-color:#FF9445"
        id="stop1074"/>
    <stop
        offset="1"
        style="stop-color:#FF8A36"
        id="stop1076"/>
  </radialGradient>
  <path
      style="fill:url(#XMLID_24_);stroke-width:0.12303928"
      d="M 7.4039951,8.328315 C 10.863121,7.9110888 14.338981,7.8188093 14.338981,7.8188093 V 5.2663595 c 0,-0.3996315 -0.329253,-0.7265469 -0.731714,-0.7265469 H 8.7212537 c -0.4024615,0 -0.7568147,0.2188868 -1.0556771,0.4862512 L 7.5384776,5.1397516 C 7.2394917,5.4069934 6.7753874,5.662792 6.3728029,5.662792 H 1.7824536 c -0.4024616,0 -0.7317146,0.3269154 -0.7317146,0.7265469 v 3.7672171 c 0,0 2.8940068,-1.4111379 6.3532561,-1.828241 z"
      id="path1079"
  />
  <linearGradient
      id="XMLID_25_"
      gradientUnits="userSpaceOnUse"
      x1="59.637199"
      y1="28.6401"
      x2="65.511497"
      y2="120.5861"
      gradientTransform="matrix(0.12303928,0,0,0.12303928,0.18946401,-0.27102461)">
    <stop
        offset="0"
        style="stop-color:#EBDBA6"
        id="stop1081"/>
    <stop
        offset="1"
        style="stop-color:#FF7512"
        id="stop1083"/>
  </linearGradient>
  <path
      style="fill:url(#XMLID_25_);stroke-width:0.12303928"
      d="M 13.607267,4.5398126 H 8.7212537 c -0.4024615,0 -0.7568147,0.2188868 -1.0556771,0.4862512 L 7.5384776,5.1397516 C 7.2394917,5.4069934 6.7753874,5.662792 6.3728029,5.662792 H 1.7824536 c -0.4024616,0 -0.7317146,0.3269154 -0.7317146,0.7265469 v 0.1230395 c 0,-0.3996316 0.329253,-0.7265469 0.7317146,-0.7265469 h 4.5903493 c 0.4024616,0 0.8666888,-0.2557986 1.1656742,-0.5230401 L 7.6655761,5.1491036 C 7.964439,4.8817387 8.3187922,4.6628519 8.7212537,4.6628519 h 4.8860133 c 0.402461,0 0.731714,0.3269154 0.731714,0.7265469 V 5.2663593 c 0,-0.3996315 -0.329253,-0.7265468 -0.731714,-0.7265467 z"
      id="path1086"
  />
  <linearGradient
      id="XMLID_26_"
      gradientUnits="userSpaceOnUse"
      x1="103.9541"
      y1="11.4053"
      x2="108.0303"
      y2="106.0095"
      gradientTransform="matrix(0.12303928,0,0,0.12303928,0.18946401,-0.27102461)">
    <stop
        offset="0"
        style="stop-color:#999999"
        id="stop1088"/>
    <stop
        offset="1"
        style="stop-color:#4D4D4D"
        id="stop1090"/>
  </linearGradient>
  <rect
      x="13.231627"
      y="4.5275087"
      style="opacity:0.15;fill:url(#XMLID_26_);stroke-width:0.12303928"
      width="0.12303928"
      height="7.7514749"
      id="rect1093"/>
  <path
      style="fill:#f3af61;stroke-width:0.12303928"
      d="m 5.3571138,2.6819194 c 0,0.1353433 -0.1107347,0.2460786 -0.2460786,0.2460786 H 1.2968176 C 1.1614743,2.927998 1.050739,2.8172633 1.050739,2.6819194 V 2.4358408 c 0,-0.1353431 0.1107353,-0.2460785 0.2460786,-0.2460785 h 3.8142176 c 0.1353432,0 0.2460786,0.1107347 0.2460786,0.2460785 z"
      id="path1095"
  />
  <path
      style="fill:#cccccc;stroke-width:0.12303928"
      d="m 1.2352979,4.8966264 c -0.1018765,0 -0.1845589,0.082683 -0.1845589,0.184559 0,0.1018766 0.082682,0.1845589 0.1845589,0.1845589 0.1018765,0 0.184559,-0.082682 0.184559,-0.1845589 0,-0.1018766 -0.082683,-0.184559 -0.184559,-0.184559 z m 1.1073535,0 c -0.1018766,0 -0.1845589,0.082683 -0.1845589,0.184559 0,0.1018766 0.082683,0.1845589 0.1845589,0.1845589 0.1018766,0 0.1845589,-0.082682 0.1845589,-0.1845589 0,-0.1018766 -0.082683,-0.184559 -0.1845589,-0.184559 z m 1.1073536,0 c -0.1018767,0 -0.1845591,0.082683 -0.1845591,0.184559 0,0.1018766 0.082683,0.1845589 0.1845591,0.1845589 0.1018766,0 0.1845588,-0.082682 0.1845588,-0.1845589 0,-0.1018766 -0.082683,-0.184559 -0.1845588,-0.184559 z m 1.1073534,0 c -0.1018766,0 -0.1845589,0.082683 -0.1845589,0.184559 0,0.1018766 0.082682,0.1845589 0.1845589,0.1845589 0.1018766,0 0.1845589,-0.082682 0.1845589,-0.1845589 0,-0.1018766 -0.082683,-0.184559 -0.1845589,-0.184559 z m 1.1073535,0 c -0.1018766,0 -0.1845588,0.082683 -0.1845588,0.184559 0,0.1018766 0.082682,0.1845589 0.1845588,0.1845589 0.1018766,0 0.1845589,-0.082682 0.1845589,-0.1845589 0,-0.1018766 -0.082683,-0.184559 -0.1845589,-0.184559 z m 1.1073536,0 c -0.1018766,0 -0.184559,0.082683 -0.184559,0.184559 0,0.1018766 0.082682,0.1845589 0.184559,0.1845589 0.1018766,0 0.1845589,-0.082682 0.1845589,-0.1845589 0,-0.1018766 -0.082683,-0.184559 -0.1845589,-0.184559 z"
      id="path1097"
  />
  <path
      style="opacity:0.07000002;fill:#802600;stroke-width:0.12303928"
      d="m 1.2352979,6.00398 c -0.1018765,0 -0.1845589,0.082682 -0.1845589,0.1845589 0,0.1018766 0.082682,0.184559 0.1845589,0.184559 0.1018765,0 0.184559,-0.082683 0.184559,-0.184559 0,-0.1018767 -0.082683,-0.1845589 -0.184559,-0.1845589 z m 1.1073535,0 c -0.1018766,0 -0.1845589,0.082682 -0.1845589,0.1845589 0,0.1018766 0.082683,0.184559 0.1845589,0.184559 0.1018766,0 0.1845589,-0.082683 0.1845589,-0.184559 0,-0.1018767 -0.082683,-0.1845589 -0.1845589,-0.1845589 z m 1.1073536,0 c -0.1018767,0 -0.1845591,0.082682 -0.1845591,0.1845589 0,0.1018766 0.082683,0.184559 0.1845591,0.184559 0.1018766,0 0.1845588,-0.082683 0.1845588,-0.184559 0,-0.1018767 -0.082683,-0.1845589 -0.1845588,-0.1845589 z m 1.1073534,0 c -0.1018766,0 -0.1845589,0.082682 -0.1845589,0.1845589 0,0.1018766 0.082682,0.184559 0.1845589,0.184559 0.1018766,0 0.1845589,-0.082683 0.1845589,-0.184559 0,-0.1018767 -0.082683,-0.1845589 -0.1845589,-0.1845589 z m 1.1073535,0 c -0.1018766,0 -0.1845588,0.082682 -0.1845588,0.1845589 0,0.1018766 0.082682,0.184559 0.1845588,0.184559 0.1018766,0 0.1845589,-0.082683 0.1845589,-0.184559 0,-0.1018767 -0.082683,-0.1845589 -0.1845589,-0.1845589 z m 1.1073536,0 c -0.1018766,0 -0.184559,0.082682 -0.184559,0.1845589 0,0.1018766 0.082682,0.184559 0.184559,0.184559 0.1018766,0 0.1845589,-0.082683 0.1845589,-0.184559 0,-0.1018767 -0.082683,-0.1845589 -0.1845589,-0.1845589 z m 1.1073534,0 c -0.1018766,0 -0.1845589,0.082682 -0.1845589,0.1845589 0,0.1018766 0.082683,0.184559 0.1845589,0.184559 0.1018766,0 0.1845589,-0.082683 0.1845589,-0.184559 0,-0.1018767 -0.082682,-0.1845589 -0.1845589,-0.1845589 z m 1.1073536,0 c -0.1018766,0 -0.1845589,0.082682 -0.1845589,0.1845589 0,0.1018766 0.082683,0.184559 0.1845589,0.184559 0.1018766,0 0.1845589,-0.082683 0.1845589,-0.184559 0,-0.1018767 -0.082683,-0.1845589 -0.1845589,-0.1845589 z m 1.1073535,0 c -0.1018763,0 -0.184559,0.082682 -0.184559,0.1845589 0,0.1018766 0.082683,0.184559 0.184559,0.184559 0.101877,0 0.184559,-0.082683 0.184559,-0.184559 0,-0.1018767 -0.08268,-0.1845589 -0.184559,-0.1845589 z m 1.107353,0 c -0.101876,0 -0.184558,0.082682 -0.184558,0.1845589 0,0.1018766 0.08268,0.184559 0.184558,0.184559 0.101877,0 0.184559,-0.082683 0.184559,-0.184559 0,-0.1018767 -0.08268,-0.1845589 -0.184559,-0.1845589 z m 1.107354,0 c -0.101877,0 -0.184559,0.082682 -0.184559,0.1845589 0,0.1018766 0.08268,0.184559 0.184559,0.184559 0.101877,0 0.184559,-0.082683 0.184559,-0.184559 0,-0.1018767 -0.08268,-0.1845589 -0.184559,-0.1845589 z M 7.8794189,4.8966264 c -0.1018766,0 -0.1845589,0.082683 -0.1845589,0.184559 0,0.1018766 0.082683,0.1845589 0.1845589,0.1845589 0.1018766,0 0.1845589,-0.082682 0.1845589,-0.1845589 0,-0.1018766 -0.082682,-0.184559 -0.1845589,-0.184559 z m 1.1073536,0 c -0.1018766,0 -0.1845589,0.082683 -0.1845589,0.184559 0,0.1018766 0.082683,0.1845589 0.1845589,0.1845589 0.1018766,0 0.1845589,-0.082682 0.1845589,-0.1845589 0,-0.1018766 -0.082683,-0.184559 -0.1845589,-0.184559 z m 1.1073535,0 c -0.1018763,0 -0.184559,0.082683 -0.184559,0.184559 0,0.1018766 0.082683,0.1845589 0.184559,0.1845589 0.101877,0 0.184559,-0.082682 0.184559,-0.1845589 0,-0.1018766 -0.08268,-0.184559 -0.184559,-0.184559 z m 1.107353,0 c -0.101876,0 -0.184558,0.082683 -0.184558,0.184559 0,0.1018766 0.08268,0.1845589 0.184558,0.1845589 0.101877,0 0.184559,-0.082682 0.184559,-0.1845589 0,-0.1018766 -0.08268,-0.184559 -0.184559,-0.184559 z m 1.107354,0.3691179 c 0.101877,0 0.184559,-0.082682 0.184559,-0.1845589 0,-0.1018766 -0.08268,-0.184559 -0.184559,-0.184559 -0.101877,0 -0.184559,0.082683 -0.184559,0.184559 0,0.1018766 0.08268,0.1845589 0.184559,0.1845589 z M 1.2352979,7.1113335 c -0.1018765,0 -0.1845589,0.082683 -0.1845589,0.1845589 0,0.1018766 0.082682,0.1845589 0.1845589,0.1845589 0.1018765,0 0.184559,-0.082682 0.184559,-0.1845589 0,-0.1018766 -0.082683,-0.1845589 -0.184559,-0.1845589 z m 1.1073535,0 c -0.1018766,0 -0.1845589,0.082683 -0.1845589,0.1845589 0,0.1018766 0.082683,0.1845589 0.1845589,0.1845589 0.1018766,0 0.1845589,-0.082682 0.1845589,-0.1845589 0,-0.1018766 -0.082683,-0.1845589 -0.1845589,-0.1845589 z m 1.1073536,0 c -0.1018767,0 -0.1845591,0.082683 -0.1845591,0.1845589 0,0.1018766 0.082683,0.1845589 0.1845591,0.1845589 0.1018766,0 0.1845588,-0.082682 0.1845588,-0.1845589 0,-0.1018766 -0.082683,-0.1845589 -0.1845588,-0.1845589 z m 1.1073534,0 c -0.1018766,0 -0.1845589,0.082683 -0.1845589,0.1845589 0,0.1018766 0.082682,0.1845589 0.1845589,0.1845589 0.1018766,0 0.1845589,-0.082682 0.1845589,-0.1845589 0,-0.1018766 -0.082683,-0.1845589 -0.1845589,-0.1845589 z m 1.1073535,0 c -0.1018766,0 -0.1845588,0.082683 -0.1845588,0.1845589 0,0.1018766 0.082682,0.1845589 0.1845588,0.1845589 0.1018766,0 0.1845589,-0.082682 0.1845589,-0.1845589 0,-0.1018766 -0.082683,-0.1845589 -0.1845589,-0.1845589 z m 1.1073536,0 c -0.1018766,0 -0.184559,0.082683 -0.184559,0.1845589 0,0.1018766 0.082682,0.1845589 0.184559,0.1845589 0.1018766,0 0.1845589,-0.082682 0.1845589,-0.1845589 0,-0.1018766 -0.082683,-0.1845589 -0.1845589,-0.1845589 z m 1.1073534,0 c -0.1018766,0 -0.1845589,0.082683 -0.1845589,0.1845589 0,0.1018766 0.082683,0.1845589 0.1845589,0.1845589 0.1018766,0 0.1845589,-0.082682 0.1845589,-0.1845589 0,-0.1018766 -0.082682,-0.1845589 -0.1845589,-0.1845589 z m 1.1073536,0 c -0.1018766,0 -0.1845589,0.082683 -0.1845589,0.1845589 0,0.1018766 0.082683,0.1845589 0.1845589,0.1845589 0.1018766,0 0.1845589,-0.082682 0.1845589,-0.1845589 0,-0.1018766 -0.082683,-0.1845589 -0.1845589,-0.1845589 z m 1.1073535,0 c -0.1018763,0 -0.184559,0.082683 -0.184559,0.1845589 0,0.1018766 0.082683,0.1845589 0.184559,0.1845589 0.101877,0 0.184559,-0.082682 0.184559,-0.1845589 0,-0.1018766 -0.08268,-0.1845589 -0.184559,-0.1845589 z m 1.107353,0 c -0.101876,0 -0.184558,0.082683 -0.184558,0.1845589 0,0.1018766 0.08268,0.1845589 0.184558,0.1845589 0.101877,0 0.184559,-0.082682 0.184559,-0.1845589 0,-0.1018766 -0.08268,-0.1845589 -0.184559,-0.1845589 z m 1.107354,0 c -0.101877,0 -0.184559,0.082683 -0.184559,0.1845589 0,0.1018766 0.08268,0.1845589 0.184559,0.1845589 0.101877,0 0.184559,-0.082682 0.184559,-0.1845589 0,-0.1018766 -0.08268,-0.1845589 -0.184559,-0.1845589 z M 1.2352979,8.218687 c -0.1018765,0 -0.1845589,0.082683 -0.1845589,0.184559 0,0.1018766 0.082682,0.1845589 0.1845589,0.1845589 0.1018765,0 0.184559,-0.082683 0.184559,-0.1845589 0,-0.1018766 -0.082683,-0.184559 -0.184559,-0.184559 z m 1.1073535,0 c -0.1018766,0 -0.1845589,0.082683 -0.1845589,0.184559 0,0.1018766 0.082683,0.1845589 0.1845589,0.1845589 0.1018766,0 0.1845589,-0.082683 0.1845589,-0.1845589 0,-0.1018766 -0.082683,-0.184559 -0.1845589,-0.184559 z m 1.1073536,0 c -0.1018767,0 -0.1845591,0.082683 -0.1845591,0.184559 0,0.1018766 0.082683,0.1845589 0.1845591,0.1845589 0.1018766,0 0.1845588,-0.082683 0.1845588,-0.1845589 0,-0.1018766 -0.082683,-0.184559 -0.1845588,-0.184559 z m 1.1073534,0 c -0.1018766,0 -0.1845589,0.082683 -0.1845589,0.184559 0,0.1018766 0.082682,0.1845589 0.1845589,0.1845589 0.1018766,0 0.1845589,-0.082683 0.1845589,-0.1845589 0,-0.1018766 -0.082683,-0.184559 -0.1845589,-0.184559 z m 1.1073535,0 c -0.1018766,0 -0.1845588,0.082683 -0.1845588,0.184559 0,0.1018766 0.082682,0.1845589 0.1845588,0.1845589 0.1018766,0 0.1845589,-0.082683 0.1845589,-0.1845589 0,-0.1018766 -0.082683,-0.184559 -0.1845589,-0.184559 z m 1.1073536,0 c -0.1018766,0 -0.184559,0.082683 -0.184559,0.184559 0,0.1018766 0.082682,0.1845589 0.184559,0.1845589 0.1018766,0 0.1845589,-0.082683 0.1845589,-0.1845589 0,-0.1018766 -0.082683,-0.184559 -0.1845589,-0.184559 z m 1.1073534,0 c -0.1018766,0 -0.1845589,0.082683 -0.1845589,0.184559 0,0.1018766 0.082683,0.1845589 0.1845589,0.1845589 0.1018766,0 0.1845589,-0.082683 0.1845589,-0.1845589 0,-0.1018766 -0.082682,-0.184559 -0.1845589,-0.184559 z m 1.1073536,0 c -0.1018766,0 -0.1845589,0.082683 -0.1845589,0.184559 0,0.1018766 0.082683,0.1845589 0.1845589,0.1845589 0.1018766,0 0.1845589,-0.082683 0.1845589,-0.1845589 0,-0.1018766 -0.082683,-0.184559 -0.1845589,-0.184559 z m 1.1073535,0 c -0.1018763,0 -0.184559,0.082683 -0.184559,0.184559 0,0.1018766 0.082683,0.1845589 0.184559,0.1845589 0.101877,0 0.184559,-0.082683 0.184559,-0.1845589 0,-0.1018766 -0.08268,-0.184559 -0.184559,-0.184559 z m 1.107353,0 c -0.101876,0 -0.184558,0.082683 -0.184558,0.184559 0,0.1018766 0.08268,0.1845589 0.184558,0.1845589 0.101877,0 0.184559,-0.082683 0.184559,-0.1845589 0,-0.1018766 -0.08268,-0.184559 -0.184559,-0.184559 z m 1.107354,0 c -0.101877,0 -0.184559,0.082683 -0.184559,0.184559 0,0.1018766 0.08268,0.1845589 0.184559,0.1845589 0.101877,0 0.184559,-0.082683 0.184559,-0.1845589 0,-0.1018766 -0.08268,-0.184559 -0.184559,-0.184559 z M 1.2352979,9.3260405 c -0.1018765,0 -0.1845589,0.082683 -0.1845589,0.1845589 0,0.1018766 0.082682,0.184559 0.1845589,0.184559 0.1018765,0 0.184559,-0.082682 0.184559,-0.184559 0,-0.1018766 -0.082683,-0.1845589 -0.184559,-0.1845589 z m 1.1073535,0 c -0.1018766,0 -0.1845589,0.082683 -0.1845589,0.1845589 0,0.1018766 0.082683,0.184559 0.1845589,0.184559 0.1018766,0 0.1845589,-0.082682 0.1845589,-0.184559 0,-0.1018766 -0.082683,-0.1845589 -0.1845589,-0.1845589 z m 1.1073536,0 c -0.1018767,0 -0.1845591,0.082683 -0.1845591,0.1845589 0,0.1018766 0.082683,0.184559 0.1845591,0.184559 0.1018766,0 0.1845588,-0.082682 0.1845588,-0.184559 0,-0.1018766 -0.082683,-0.1845589 -0.1845588,-0.1845589 z m 1.1073534,0 c -0.1018766,0 -0.1845589,0.082683 -0.1845589,0.1845589 0,0.1018766 0.082682,0.184559 0.1845589,0.184559 0.1018766,0 0.1845589,-0.082682 0.1845589,-0.184559 0,-0.1018766 -0.082683,-0.1845589 -0.1845589,-0.1845589 z m 1.1073535,0 c -0.1018766,0 -0.1845588,0.082683 -0.1845588,0.1845589 0,0.1018766 0.082682,0.184559 0.1845588,0.184559 0.1018766,0 0.1845589,-0.082682 0.1845589,-0.184559 0,-0.1018766 -0.082683,-0.1845589 -0.1845589,-0.1845589 z m 1.1073536,0 c -0.1018766,0 -0.184559,0.082683 -0.184559,0.1845589 0,0.1018766 0.082682,0.184559 0.184559,0.184559 0.1018766,0 0.1845589,-0.082682 0.1845589,-0.184559 0,-0.1018766 -0.082683,-0.1845589 -0.1845589,-0.1845589 z m 1.1073534,0 c -0.1018766,0 -0.1845589,0.082683 -0.1845589,0.1845589 0,0.1018766 0.082683,0.184559 0.1845589,0.184559 0.1018766,0 0.1845589,-0.082682 0.1845589,-0.184559 0,-0.1018766 -0.082682,-0.1845589 -0.1845589,-0.1845589 z m 1.1073536,0 c -0.1018766,0 -0.1845589,0.082683 -0.1845589,0.1845589 0,0.1018766 0.082683,0.184559 0.1845589,0.184559 0.1018766,0 0.1845589,-0.082682 0.1845589,-0.184559 0,-0.1018766 -0.082683,-0.1845589 -0.1845589,-0.1845589 z m 1.1073535,0 c -0.1018763,0 -0.184559,0.082683 -0.184559,0.1845589 0,0.1018766 0.082683,0.184559 0.184559,0.184559 0.101877,0 0.184559,-0.082682 0.184559,-0.184559 0,-0.1018766 -0.08268,-0.1845589 -0.184559,-0.1845589 z m 1.107353,0 c -0.101876,0 -0.184558,0.082683 -0.184558,0.1845589 0,0.1018766 0.08268,0.184559 0.184558,0.184559 0.101877,0 0.184559,-0.082682 0.184559,-0.184559 0,-0.1018766 -0.08268,-0.1845589 -0.184559,-0.1845589 z m 1.107354,0 c -0.101877,0 -0.184559,0.082683 -0.184559,0.1845589 0,0.1018766 0.08268,0.184559 0.184559,0.184559 0.101877,0 0.184559,-0.082682 0.184559,-0.184559 0,-0.1018766 -0.08268,-0.1845589 -0.184559,-0.1845589 z M 1.2352979,10.433394 c -0.1018765,0 -0.1845589,0.08268 -0.1845589,0.184559 0,0.101877 0.082682,0.184559 0.1845589,0.184559 0.1018765,0 0.184559,-0.08268 0.184559,-0.184559 0,-0.101877 -0.082683,-0.184559 -0.184559,-0.184559 z m 1.1073535,0 c -0.1018766,0 -0.1845589,0.08268 -0.1845589,0.184559 0,0.101877 0.082683,0.184559 0.1845589,0.184559 0.1018766,0 0.1845589,-0.08268 0.1845589,-0.184559 0,-0.101877 -0.082683,-0.184559 -0.1845589,-0.184559 z m 1.1073536,0 c -0.1018767,0 -0.1845591,0.08268 -0.1845591,0.184559 0,0.101877 0.082683,0.184559 0.1845591,0.184559 0.1018766,0 0.1845588,-0.08268 0.1845588,-0.184559 0,-0.101877 -0.082683,-0.184559 -0.1845588,-0.184559 z m 1.1073534,0 c -0.1018766,0 -0.1845589,0.08268 -0.1845589,0.184559 0,0.101877 0.082682,0.184559 0.1845589,0.184559 0.1018766,0 0.1845589,-0.08268 0.1845589,-0.184559 0,-0.101877 -0.082683,-0.184559 -0.1845589,-0.184559 z m 1.1073535,0 c -0.1018766,0 -0.1845588,0.08268 -0.1845588,0.184559 0,0.101877 0.082682,0.184559 0.1845588,0.184559 0.1018766,0 0.1845589,-0.08268 0.1845589,-0.184559 0,-0.101877 -0.082683,-0.184559 -0.1845589,-0.184559 z m 1.1073536,0 c -0.1018766,0 -0.184559,0.08268 -0.184559,0.184559 0,0.101877 0.082682,0.184559 0.184559,0.184559 0.1018766,0 0.1845589,-0.08268 0.1845589,-0.184559 0,-0.101877 -0.082683,-0.184559 -0.1845589,-0.184559 z m 1.1073534,0 c -0.1018766,0 -0.1845589,0.08268 -0.1845589,0.184559 0,0.101877 0.082683,0.184559 0.1845589,0.184559 0.1018766,0 0.1845589,-0.08268 0.1845589,-0.184559 0,-0.101877 -0.082682,-0.184559 -0.1845589,-0.184559 z m 1.1073536,0 c -0.1018766,0 -0.1845589,0.08268 -0.1845589,0.184559 0,0.101877 0.082683,0.184559 0.1845589,0.184559 0.1018766,0 0.1845589,-0.08268 0.1845589,-0.184559 0,-0.101877 -0.082683,-0.184559 -0.1845589,-0.184559 z m 1.1073535,0 c -0.1018763,0 -0.184559,0.08268 -0.184559,0.184559 0,0.101877 0.082683,0.184559 0.184559,0.184559 0.101877,0 0.184559,-0.08268 0.184559,-0.184559 0,-0.101877 -0.08268,-0.184559 -0.184559,-0.184559 z m 1.107353,0 c -0.101876,0 -0.184558,0.08268 -0.184558,0.184559 0,0.101877 0.08268,0.184559 0.184558,0.184559 0.101877,0 0.184559,-0.08268 0.184559,-0.184559 0,-0.101877 -0.08268,-0.184559 -0.184559,-0.184559 z m 1.107354,0 c -0.101877,0 -0.184559,0.08268 -0.184559,0.184559 0,0.101877 0.08268,0.184559 0.184559,0.184559 0.101877,0 0.184559,-0.08268 0.184559,-0.184559 0,-0.101877 -0.08268,-0.184559 -0.184559,-0.184559 z"
      id="path1099"
  />
  <g
      id="orrec"
      transform="matrix(0.12303929,0,0,0.12303929,0.18946401,-0.27102321)">
    <path
        style="clip-rule:evenodd;fill:#f36600;fill-rule:evenodd"
        d="m 62,103 c 0,-3.85 3.15,-7 7,-7 h 52 c 3.85,0 7,3.15 7,7 v 11 c 0,3.85 -3.15,7 -7,7 H 69 c -3.85,0 -7,-3.15 -7,-7 z"
        id="path1101"
    />
    <path
        style="fill:#ffffff"
        d="m 81.45,102.736 h 6.984 v 1.979 H 83.97 v 3.096 h 4.247 v 1.98 H 83.97 v 5.508 h -2.52 z"
        id="path1103"
    />
    <path
        style="fill:#ffffff"
        d="m 92.736,104.716 h -3.601 v -1.979 h 9.721 v 1.979 H 95.255 V 115.3 h -2.52 v -10.584 z"
        id="path1105"
    />
    <path
        style="fill:#ffffff"
        d="m 100.242,102.736 h 3.186 c 2.736,0 5.238,0.791 5.238,3.797 0,2.935 -2.142,3.996 -4.842,3.996 h -1.062 v 4.771 h -2.52 z m 2.52,5.814 h 0.882 c 1.261,0 2.395,-0.414 2.395,-1.872 0,-1.458 -1.098,-1.962 -2.395,-1.962 h -0.882 z"
        id="path1107"
    />
  </g>
</svg>